<svg width="563" height="552" viewBox="0 0 563 552" fill="none" xmlns="http://www.w3.org/2000/svg">
<ellipse cx="285.478" cy="269.908" rx="193.131" ry="193.059" fill="url(#paint0_linear_26_41)"/>
<path d="M294.651 0L325.411 50.3618H263.891L294.651 0Z" fill="#CD9D1E"/>
<path d="M323.274 491.449L289.583 540.199L260.461 490.379L323.274 491.449Z" fill="#CD9D1E"/>
<path d="M193.734 22.7826L244.295 57.0644L188.215 80.3179L193.734 22.7826Z" fill="#A36200"/>
<path d="M100.258 75.4259L160.671 91.2705L116.99 131.098L100.258 75.4259Z" fill="#CD9D1E"/>
<path d="M25.3136 150.321L88.109 152.051L56.3951 200.516L25.3136 150.321Z" fill="#A36200"/>
<path d="M0.785342 262.254L54.8699 232.868L56.2302 289.414L0.785342 262.254Z" fill="#CD9D1E"/>
<path d="M24.2152 368.334L57.2264 319.192L87.0377 368.667L24.2152 368.334Z" fill="#A36200"/>
<path d="M186.817 451.589L238.895 483.894L183.925 509.287L186.817 451.589Z" fill="#A36200"/>
<path d="M111.063 401.887L150.505 446.843L89.8424 456.251L111.063 401.887Z" fill="#CD9D1E"/>
<path d="M386.791 517.898L340.331 483.746L390.921 459.202L386.791 517.898Z" fill="#A36200"/>
<path d="M470.903 462.842L415.775 447.623L454.846 406.384L470.903 462.842Z" fill="#CD9D1E"/>
<path d="M537.837 385.401L480.762 384.598L508.828 334.742L537.837 385.401Z" fill="#A36200"/>
<path d="M558.4 270.999L509.717 301.761L507.612 244.178L558.4 270.999Z" fill="#CD9D1E"/>
<path d="M535.484 163.292L506.249 213.858L478.406 163.912L535.484 163.292Z" fill="#A36200"/>
<path d="M392.049 76.9926L339.016 55.9109L382.322 19.0451L392.049 76.9926Z" fill="#A36200"/>
<path d="M456.07 130.437L419.546 85.2417L474.512 74.732L456.07 130.437Z" fill="#CD9D1E"/>
<ellipse cx="284.5" cy="267.5" rx="166.5" ry="164.5" fill="#D9D9D9"/>
<defs>
<linearGradient id="paint0_linear_26_41" x1="285.478" y1="76.8489" x2="285.478" y2="462.968" gradientUnits="userSpaceOnUse">
<stop offset="0.168269" stop-color="#CD9D1E"/>
<stop offset="0.355769" stop-color="#E3BB4F"/>
<stop offset="0.509615" stop-color="#E3BB4F"/>
<stop offset="0.697115" stop-color="#E3BB4F"/>
<stop offset="0.860577" stop-color="#CD9D1E"/>
</linearGradient>
</defs>
</svg>
